{
    "asset" : {
        "generator" : "Khronos glTF Blender I/O v1.3.48",
        "version" : "2.0"
    },
    "scene" : 0,
    "scenes" : [
        {
            "extras" : {
                "glTF2ExportSettings" : {
                    "export_apply" : 1,
                    "export_extras" : 1,
                    "export_format" : "GLTF_EMBEDDED",
                    "use_selection" : 1
                }
            },
            "name" : "Scene",
            "nodes" : [
                0,
                1
            ]
        }
    ],
    "nodes" : [
        {
            "mesh" : 0,
            "name" : "Cube",
            "scale" : [
                1.275415062904358,
                0.18901300430297852,
                1
            ],
            "translation" : [
                0,
                0.16805845499038696,
                0
            ]
        },
        {
            "mesh" : 1,
            "name" : "Text.002",
            "rotation" : [
                0.7071068286895752,
                0,
                0,
                0.7071068286895752
            ],
            "scale" : [
                2.4422969818115234,
                2.4422969818115234,
                2.4422969818115234
            ],
            "translation" : [
                -0.062024444341659546,
                9.374627113342285,
                0.03956414759159088
            ]
        }
    ],
    "materials" : [
        {
            "doubleSided" : true,
            "emissiveFactor" : [
                0,
                0,
                0
            ],
            "name" : "Material.007",
            "pbrMetallicRoughness" : {
                "baseColorTexture" : {
                    "index" : 0,
                    "texCoord" : 0
                },
                "metallicFactor" : 0,
                "roughnessFactor" : 0.5
            }
        },
        {
            "doubleSided" : true,
            "emissiveFactor" : [
                0,
                0,
                0
            ],
            "name" : "Material.005",
            "pbrMetallicRoughness" : {
                "baseColorTexture" : {
                    "index" : 1,
                    "texCoord" : 0
                },
                "metallicFactor" : 0,
                "roughnessFactor" : 0.5
            }
        }
    ],
    "meshes" : [
        {
            "name" : "Cube",
            "primitives" : [
                {
                    "attributes" : {
                        "POSITION" : 0,
                        "NORMAL" : 1,
                        "TEXCOORD_0" : 2
                    },
                    "indices" : 3,
                    "material" : 0
                }
            ]
        },
        {
            "name" : "Text.005",
            "primitives" : [
                {
                    "attributes" : {
                        "POSITION" : 4,
                        "NORMAL" : 5,
                        "TEXCOORD_0" : 6
                    },
                    "indices" : 7,
                    "material" : 1
                }
            ]
        }
    ],
    "textures" : [
        {
            "source" : 0
        },
        {
            "source" : 0
        }
    ],
    "images" : [
        {
            "bufferView" : 4,
            "mimeType" : "image/png",
            "name" : "concrete7"
        }
    ],
    "accessors" : [
        {
            "bufferView" : 0,
            "componentType" : 5126,
            "count" : 5742,
            "max" : [
                3.79689359664917,
                25.422325134277344,
                1.1041978597640991
            ],
            "min" : [
                -3.79689359664917,
                -1.2434272766113281,
                -1.1052939891815186
            ],
            "type" : "VEC3"
        },
        {
            "bufferView" : 1,
            "componentType" : 5126,
            "count" : 5742,
            "type" : "VEC3"
        },
        {
            "bufferView" : 2,
            "componentType" : 5126,
            "count" : 5742,
            "type" : "VEC2"
        },
        {
            "bufferView" : 3,
            "componentType" : 5123,
            "count" : 8628,
            "type" : "SCALAR"
        },
        {
            "bufferView" : 5,
            "componentType" : 5126,
            "count" : 12707,
            "max" : [
                1.677524209022522,
                0.25999999046325684,
                1.799999713897705
            ],
            "min" : [
                -1.6905536651611328,
                -0.25999999046325684,
                -0.5985341668128967
            ],
            "type" : "VEC3"
        },
        {
            "bufferView" : 6,
            "componentType" : 5126,
            "count" : 12707,
            "type" : "VEC3"
        },
        {
            "bufferView" : 7,
            "componentType" : 5126,
            "count" : 12707,
            "type" : "VEC2"
        },
        {
            "bufferView" : 8,
            "componentType" : 5123,
            "count" : 26616,
            "type" : "SCALAR"
        }
    ],
    "bufferViews" : [
        {
            "buffer" : 0,
            "byteLength" : 68904,
            "byteOffset" : 0
        },
        {
            "buffer" : 0,
            "byteLength" : 68904,
            "byteOffset" : 68904
        },
        {
            "buffer" : 0,
            "byteLength" : 45936,
            "byteOffset" : 137808
        },
        {
            "buffer" : 0,
            "byteLength" : 17256,
            "byteOffset" : 183744
        },
        {
            "buffer" : 0,
            "byteLength" : 1132651,
            "byteOffset" : 201000
        },
        {
            "buffer" : 0,
            "byteLength" : 152484,
            "byteOffset" : 1333652
        },
        {
            "buffer" : 0,
            "byteLength" : 152484,
            "byteOffset" : 1486136
        },
        {
            "buffer" : 0,
            "byteLength" : 101656,
            "byteOffset" : 1638620
        },
        {
            "buffer" : 0,
            "byteLength" : 53232,
            "byteOffset" : 1740276
        }
    ],
    "buffers" : [
        {
            "byteLength" : 1793508,
            "uri" : "data:application/octet-stream;base64,"
        }
    ]
}
